<?xml version="1.0" standalone="no"?><!DOCTYPE svg PUBLIC "-//W3C//DTD SVG 1.1//EN" "http://www.w3.org/Graphics/SVG/1.1/DTD/svg11.dtd"><svg xmlns:xlink="http://www.w3.org/1999/xlink" version="1.1" style="font-family:'lucida grande', 'lucida sans unicode', arial, helvetica, sans-serif;font-size:12px;" xmlns="http://www.w3.org/2000/svg" width="600" height="400"><desc>Created with Highcharts 4.2.7</desc><defs><clipPath id="highcharts-9"><rect x="1" y="1" width="552" height="317"></rect></clipPath></defs><rect x="36" y="10" width="554" height="319" fill="#ffffff"></rect><path fill="rgb(255, 255, 255)" fill-opacity=" .5" d="M 36 329.5 L 590 329.5 590 276.5 36 276.5"></path><path fill="rgb(255, 255, 255)" fill-opacity=" .5" d="M 36 223.5 L 590 223.5 590 170.5 36 170.5"></path><path fill="rgb(255, 255, 255)" fill-opacity=" .5" d="M 36 116.5 L 590 116.5 590 63.5 36 63.5"></path><g class="highcharts-grid"></g><g class="highcharts-grid"><path fill="none" d="M 36 329.5 L 590 329.5" stroke="#C0C0C0" stroke-width="1" opacity="1"></path><path fill="none" d="M 36 276.5 L 590 276.5" stroke="#C0C0C0" stroke-width="1" opacity="1"></path><path fill="none" d="M 36 223.5 L 590 223.5" stroke="#C0C0C0" stroke-width="1" opacity="1"></path><path fill="none" d="M 36 170.5 L 590 170.5" stroke="#C0C0C0" stroke-width="1" opacity="1"></path><path fill="none" d="M 36 116.5 L 590 116.5" stroke="#C0C0C0" stroke-width="1" opacity="1"></path><path fill="none" d="M 36 63.5 L 590 63.5" stroke="#C0C0C0" stroke-width="1" opacity="1"></path><path fill="none" d="M 36 9.5 L 590 9.5" stroke="#C0C0C0" stroke-width="1" opacity="1"></path></g><rect x="36" y="10" width="554" height="319" stroke="#026FC1" stroke-width="2" fill="none"></rect><g class="highcharts-axis"><path fill="none" d="M 104.5 329 L 104.5 339" stroke="#C0D0E0" stroke-width="1" opacity="1"></path><path fill="none" d="M 174.5 329 L 174.5 339" stroke="#C0D0E0" stroke-width="1" opacity="1"></path><path fill="none" d="M 243.5 329 L 243.5 339" stroke="#C0D0E0" stroke-width="1" opacity="1"></path><path fill="none" d="M 312.5 329 L 312.5 339" stroke="#C0D0E0" stroke-width="1" opacity="1"></path><path fill="none" d="M 381.5 329 L 381.5 339" stroke="#C0D0E0" stroke-width="1" opacity="1"></path><path fill="none" d="M 451.5 329 L 451.5 339" stroke="#C0D0E0" stroke-width="1" opacity="1"></path><path fill="none" d="M 520.5 329 L 520.5 339" stroke="#C0D0E0" stroke-width="1" opacity="1"></path><path fill="none" d="M 590.5 329 L 590.5 339" stroke="#C0D0E0" stroke-width="1" opacity="1"></path><path fill="none" d="M 35.5 329 L 35.5 339" stroke="#C0D0E0" stroke-width="1" opacity="1"></path><path fill="none" d="M 36 329.5 L 590 329.5" stroke="#C0D0E0" stroke-width="1"></path></g><g class="highcharts-axis"><path fill="none" d="M 36 329.5 L 26 329.5" stroke="#C0D0E0" stroke-width="1" opacity="1"></path><path fill="none" d="M 36 276.5 L 26 276.5" stroke="#C0D0E0" stroke-width="1" opacity="1"></path><path fill="none" d="M 36 223.5 L 26 223.5" stroke="#C0D0E0" stroke-width="1" opacity="1"></path><path fill="none" d="M 36 170.5 L 26 170.5" stroke="#C0D0E0" stroke-width="1" opacity="1"></path><path fill="none" d="M 36 116.5 L 26 116.5" stroke="#C0D0E0" stroke-width="1" opacity="1"></path><path fill="none" d="M 36 63.5 L 26 63.5" stroke="#C0D0E0" stroke-width="1" opacity="1"></path><path fill="none" d="M 36 9.5 L 26 9.5" stroke="#C0D0E0" stroke-width="1" opacity="1"></path></g><g class="highcharts-series-group"><g class="highcharts-series highcharts-series-0" transform="translate(36,10) scale(1 1)" clip-path="url(#highcharts-9)"><path fill="none" d="M 34.625 212.66666666666669 L 103.875 292.4166666666667 L 173.125 106.33333333333334 L 242.375 186.08333333333334 L 311.625 159.5 L 380.875 132.91666666666669 L 450.125 239.25 L 519.375 53.166666666666686" stroke="#5bacec" stroke-width="2" stroke-linejoin="round" stroke-linecap="round"></path></g><g class="highcharts-markers highcharts-series-0" transform="translate(36,10) scale(1 1)" clip-path="none"><path fill="#5bacec" d="M 519 49.166666666666686 C 524.328 49.166666666666686 524.328 57.166666666666686 519 57.166666666666686 C 513.672 57.166666666666686 513.672 49.166666666666686 519 49.166666666666686 Z"></path><path fill="#5bacec" d="M 450 235.25 C 455.328 235.25 455.328 243.25 450 243.25 C 444.672 243.25 444.672 235.25 450 235.25 Z"></path><path fill="#5bacec" d="M 380 128.91666666666669 C 385.328 128.91666666666669 385.328 136.91666666666669 380 136.91666666666669 C 374.672 136.91666666666669 374.672 128.91666666666669 380 128.91666666666669 Z"></path><path fill="#5bacec" d="M 311 155.5 C 316.328 155.5 316.328 163.5 311 163.5 C 305.672 163.5 305.672 155.5 311 155.5 Z"></path><path fill="#5bacec" d="M 242 182.08333333333334 C 247.328 182.08333333333334 247.328 190.08333333333334 242 190.08333333333334 C 236.672 190.08333333333334 236.672 182.08333333333334 242 182.08333333333334 Z"></path><path fill="#5bacec" d="M 173 102.33333333333334 C 178.328 102.33333333333334 178.328 110.33333333333334 173 110.33333333333334 C 167.672 110.33333333333334 167.672 102.33333333333334 173 102.33333333333334 Z"></path><path fill="#5bacec" d="M 103 288.4166666666667 C 108.328 288.4166666666667 108.328 296.4166666666667 103 296.4166666666667 C 97.672 296.4166666666667 97.672 288.4166666666667 103 288.4166666666667 Z"></path><path fill="#5bacec" d="M 34 208.66666666666669 C 39.328 208.66666666666669 39.328 216.66666666666669 34 216.66666666666669 C 28.672 216.66666666666669 28.672 208.66666666666669 34 208.66666666666669 Z"></path></g></g><g class="highcharts-data-labels highcharts-series-0" transform="translate(36,10) scale(1 1)" opacity="1"><g style="cursor:pointer;" transform="translate(27,192)"><text x="5" style="font-size:10px;font-weight:bold;font-family:'arial', sans-serif;color:#000000;text-shadow:none;fill:#000000;text-rendering:geometricprecision;" y="15"><tspan>2</tspan></text></g><g style="cursor:pointer;" transform="translate(94,271)"><text x="5" style="font-size:10px;font-weight:bold;font-family:'arial', sans-serif;color:#000000;text-shadow:none;fill:#000000;text-rendering:geometricprecision;" y="15"><tspan>-1</tspan></text></g><g style="cursor:pointer;" transform="translate(165,85)"><text x="5" style="font-size:10px;font-weight:bold;font-family:'arial', sans-serif;color:#000000;text-shadow:none;fill:#000000;text-rendering:geometricprecision;" y="15"><tspan>6</tspan></text></g><g style="cursor:pointer;" transform="translate(235,165)"><text x="5" style="font-size:10px;font-weight:bold;font-family:'arial', sans-serif;color:#000000;text-shadow:none;fill:#000000;text-rendering:geometricprecision;" y="15"><tspan>3</tspan></text></g><g style="cursor:pointer;" transform="translate(304,139)"><text x="5" style="font-size:10px;font-weight:bold;font-family:'arial', sans-serif;color:#000000;text-shadow:none;fill:#000000;text-rendering:geometricprecision;" y="15"><tspan>4</tspan></text></g><g style="cursor:pointer;" transform="translate(373,112)"><text x="5" style="font-size:10px;font-weight:bold;font-family:'arial', sans-serif;color:#000000;text-shadow:none;fill:#000000;text-rendering:geometricprecision;" y="15"><tspan>5</tspan></text></g><g style="cursor:pointer;" transform="translate(442,218)"><text x="5" style="font-size:10px;font-weight:bold;font-family:'arial', sans-serif;color:#000000;text-shadow:none;fill:#000000;text-rendering:geometricprecision;" y="15"><tspan>1</tspan></text></g><g style="cursor:pointer;" transform="translate(512,32)"><text x="5" style="font-size:10px;font-weight:bold;font-family:'arial', sans-serif;color:#000000;text-shadow:none;fill:#000000;text-rendering:geometricprecision;" y="15"><tspan>8</tspan></text></g></g><g class="highcharts-legend" transform="translate(271,360)"><g><g><g class="highcharts-legend-item" transform="translate(8,3)"><path fill="none" d="M 0 11 L 16 11" stroke="#5bacec" stroke-width="2"></path><path fill="#5bacec" d="M 8 7 C 13.328 7 13.328 15 8 15 C 2.6719999999999997 15 2.6719999999999997 7 8 7 Z"></path><text x="21" style="color:#333;font-size:9pt;font-weight:normal;cursor:pointer;font-family:'lucida grande','lucida sans unicode',arial,helvetica,sans-serif;text-transform:none;fill:#333;" text-anchor="start" y="15">BMI</text></g></g></g></g><g class="highcharts-axis-labels highcharts-xaxis-labels"><text x="70.625" style="color:#000000;cursor:default;font-size:10px;font-family:'arial', sans-serif;text-transform:none;font-weight:normal;fill:#000000;" text-anchor="middle" transform="translate(0,0)" y="347" opacity="1">BMI</text><text x="139.875" style="color:#000000;cursor:default;font-size:10px;font-family:'arial', sans-serif;text-transform:none;font-weight:normal;fill:#000000;" text-anchor="middle" transform="translate(0,0)" y="347" opacity="1">1</text><text x="209.125" style="color:#000000;cursor:default;font-size:10px;font-family:'arial', sans-serif;text-transform:none;font-weight:normal;fill:#000000;" text-anchor="middle" transform="translate(0,0)" y="347" opacity="1">2</text><text x="278.375" style="color:#000000;cursor:default;font-size:10px;font-family:'arial', sans-serif;text-transform:none;font-weight:normal;fill:#000000;" text-anchor="middle" transform="translate(0,0)" y="347" opacity="1">3</text><text x="347.625" style="color:#000000;cursor:default;font-size:10px;font-family:'arial', sans-serif;text-transform:none;font-weight:normal;fill:#000000;" text-anchor="middle" transform="translate(0,0)" y="347" opacity="1">4</text><text x="416.875" style="color:#000000;cursor:default;font-size:10px;font-family:'arial', sans-serif;text-transform:none;font-weight:normal;fill:#000000;" text-anchor="middle" transform="translate(0,0)" y="347" opacity="1">5</text><text x="486.125" style="color:#000000;cursor:default;font-size:10px;font-family:'arial', sans-serif;text-transform:none;font-weight:normal;fill:#000000;" text-anchor="middle" transform="translate(0,0)" y="347" opacity="1">6</text><text x="555.375" style="color:#000000;cursor:default;font-size:10px;font-family:'arial', sans-serif;text-transform:none;font-weight:normal;fill:#000000;" text-anchor="middle" transform="translate(0,0)" y="347" opacity="1">7</text></g><g class="highcharts-axis-labels highcharts-yaxis-labels"><text x="21" style="color:#000000;cursor:default;font-size:10px;font-family:'arial', sans-serif;text-transform:none;font-weight:normal;fill:#000000;width:188px;text-overflow:clip;" text-anchor="end" transform="translate(0,0)" y="334" opacity="1"><tspan>-2</tspan></text><text x="21" style="color:#000000;cursor:default;font-size:10px;font-family:'arial', sans-serif;text-transform:none;font-weight:normal;fill:#000000;width:188px;text-overflow:clip;" text-anchor="end" transform="translate(0,0)" y="280" opacity="1"><tspan>0</tspan></text><text x="21" style="color:#000000;cursor:default;font-size:10px;font-family:'arial', sans-serif;text-transform:none;font-weight:normal;fill:#000000;width:188px;text-overflow:clip;" text-anchor="end" transform="translate(0,0)" y="227" opacity="1"><tspan>2</tspan></text><text x="21" style="color:#000000;cursor:default;font-size:10px;font-family:'arial', sans-serif;text-transform:none;font-weight:normal;fill:#000000;width:188px;text-overflow:clip;" text-anchor="end" transform="translate(0,0)" y="174" opacity="1"><tspan>4</tspan></text><text x="21" style="color:#000000;cursor:default;font-size:10px;font-family:'arial', sans-serif;text-transform:none;font-weight:normal;fill:#000000;width:188px;text-overflow:clip;" text-anchor="end" transform="translate(0,0)" y="121" opacity="1"><tspan>6</tspan></text><text x="21" style="color:#000000;cursor:default;font-size:10px;font-family:'arial', sans-serif;text-transform:none;font-weight:normal;fill:#000000;width:188px;text-overflow:clip;" text-anchor="end" transform="translate(0,0)" y="68" opacity="1"><tspan>8</tspan></text><text x="21" style="color:#000000;cursor:default;font-size:10px;font-family:'arial', sans-serif;text-transform:none;font-weight:normal;fill:#000000;width:188px;text-overflow:clip;" text-anchor="end" transform="translate(0,0)" y="15" opacity="1"><tspan>10</tspan></text></g><g class="highcharts-tooltip" display="none" style="cursor:default;padding:0;pointer-events:none;white-space:nowrap;" transform="translate(0,0)"><path fill="none" d="M 3.5 0.5 L 13.5 0.5 C 16.5 0.5 16.5 0.5 16.5 3.5 L 16.5 13.5 C 16.5 16.5 16.5 16.5 13.5 16.5 L 3.5 16.5 C 0.5 16.5 0.5 16.5 0.5 13.5 L 0.5 3.5 C 0.5 0.5 0.5 0.5 3.5 0.5"  stroke="black" stroke-opacity="0.049999999999999996" stroke-width="5" transform="translate(1, 1)"></path><path fill="none" d="M 3.5 0.5 L 13.5 0.5 C 16.5 0.5 16.5 0.5 16.5 3.5 L 16.5 13.5 C 16.5 16.5 16.5 16.5 13.5 16.5 L 3.5 16.5 C 0.5 16.5 0.5 16.5 0.5 13.5 L 0.5 3.5 C 0.5 0.5 0.5 0.5 3.5 0.5"  stroke="black" stroke-opacity="0.09999999999999999" stroke-width="3" transform="translate(1, 1)"></path><path fill="none" d="M 3.5 0.5 L 13.5 0.5 C 16.5 0.5 16.5 0.5 16.5 3.5 L 16.5 13.5 C 16.5 16.5 16.5 16.5 13.5 16.5 L 3.5 16.5 C 0.5 16.5 0.5 16.5 0.5 13.5 L 0.5 3.5 C 0.5 0.5 0.5 0.5 3.5 0.5"  stroke="black" stroke-opacity="0.15" stroke-width="1" transform="translate(1, 1)"></path><path fill="rgb(255, 255, 255)" fill-opacity=" 0.85" d="M 3.5 0.5 L 13.5 0.5 C 16.5 0.5 16.5 0.5 16.5 3.5 L 16.5 13.5 C 16.5 16.5 16.5 16.5 13.5 16.5 L 3.5 16.5 C 0.5 16.5 0.5 16.5 0.5 13.5 L 0.5 3.5 C 0.5 0.5 0.5 0.5 3.5 0.5"></path><text x="8" style="font-size:12px;color:#000000;fill:#000000;" y="20"></text></g><text x="590" text-anchor="end" style="cursor:pointer;color:#909090;font-size:9px;fill:#909090;" y="395">meta-chart.com</text></svg>