<?xml version="1.0" standalone="no"?><!DOCTYPE svg PUBLIC "-//W3C//DTD SVG 1.1//EN" "http://www.w3.org/Graphics/SVG/1.1/DTD/svg11.dtd"><svg xmlns:xlink="http://www.w3.org/1999/xlink" version="1.1" style="font-family:'lucida grande', 'lucida sans unicode', arial, helvetica, sans-serif;font-size:12px;" xmlns="http://www.w3.org/2000/svg" width="600" height="400"><desc>Created with Highcharts 4.2.7</desc><defs><clipPath id="highcharts-9"><rect x="1" y="1" width="531" height="291"></rect></clipPath></defs><rect x="57" y="36" width="533" height="293" fill="#ffffff"></rect><path fill="rgb(255, 255, 255)" fill-opacity=" .5" d="M 57 329.5 L 590 329.5 590 270.5 57 270.5"></path><path fill="rgb(255, 255, 255)" fill-opacity=" .5" d="M 57 212.5 L 590 212.5 590 153.5 57 153.5"></path><path fill="rgb(255, 255, 255)" fill-opacity=" .5" d="M 57 95.5 L 590 95.5 590 36.5 57 36.5"></path><g class="highcharts-grid"></g><g class="highcharts-grid"><path fill="none" d="M 57 329.5 L 590 329.5" stroke="#C0C0C0" stroke-width="1" opacity="1"></path><path fill="none" d="M 57 270.5 L 590 270.5" stroke="#C0C0C0" stroke-width="1" opacity="1"></path><path fill="none" d="M 57 212.5 L 590 212.5" stroke="#C0C0C0" stroke-width="1" opacity="1"></path><path fill="none" d="M 57 153.5 L 590 153.5" stroke="#C0C0C0" stroke-width="1" opacity="1"></path><path fill="none" d="M 57 95.5 L 590 95.5" stroke="#C0C0C0" stroke-width="1" opacity="1"></path><path fill="none" d="M 57 35.5 L 590 35.5" stroke="#C0C0C0" stroke-width="1" opacity="1"></path></g><rect x="57" y="36" width="533" height="293" stroke="#026FC1" stroke-width="2" fill="none"></rect><g class="highcharts-axis"><path fill="none" d="M 123.5 329 L 123.5 339" stroke="#C0D0E0" stroke-width="1" opacity="1"></path><path fill="none" d="M 189.5 329 L 189.5 339" stroke="#C0D0E0" stroke-width="1" opacity="1"></path><path fill="none" d="M 256.5 329 L 256.5 339" stroke="#C0D0E0" stroke-width="1" opacity="1"></path><path fill="none" d="M 323.5 329 L 323.5 339" stroke="#C0D0E0" stroke-width="1" opacity="1"></path><path fill="none" d="M 389.5 329 L 389.5 339" stroke="#C0D0E0" stroke-width="1" opacity="1"></path><path fill="none" d="M 456.5 329 L 456.5 339" stroke="#C0D0E0" stroke-width="1" opacity="1"></path><path fill="none" d="M 522.5 329 L 522.5 339" stroke="#C0D0E0" stroke-width="1" opacity="1"></path><path fill="none" d="M 590.5 329 L 590.5 339" stroke="#C0D0E0" stroke-width="1" opacity="1"></path><path fill="none" d="M 56.5 329 L 56.5 339" stroke="#C0D0E0" stroke-width="1" opacity="1"></path><path fill="none" d="M 57 329.5 L 590 329.5" stroke="#C0D0E0" stroke-width="1"></path></g><g class="highcharts-axis"><path fill="none" d="M 57 329.5 L 47 329.5" stroke="#C0D0E0" stroke-width="1" opacity="1"></path><path fill="none" d="M 57 270.5 L 47 270.5" stroke="#C0D0E0" stroke-width="1" opacity="1"></path><path fill="none" d="M 57 212.5 L 47 212.5" stroke="#C0D0E0" stroke-width="1" opacity="1"></path><path fill="none" d="M 57 153.5 L 47 153.5" stroke="#C0D0E0" stroke-width="1" opacity="1"></path><path fill="none" d="M 57 95.5 L 47 95.5" stroke="#C0D0E0" stroke-width="1" opacity="1"></path><path fill="none" d="M 57 35.5 L 47 35.5" stroke="#C0D0E0" stroke-width="1" opacity="1"></path><text x="20.890625" text-anchor="middle" transform="translate(0,0) rotate(270 20.890625 182.5)" class=" highcharts-yaxis-title" style="color:#000000;font-size:10px;font-family:'arial', sans-serif;text-transform:none;font-weight:normal;fill:#000000;" y="182.5">BPM</text></g><g class="highcharts-series-group"><g class="highcharts-series highcharts-series-0" transform="translate(57,36) scale(1 1)" clip-path="url(#highcharts-9)"><path fill="none" d="M 33.3125 234.4 L 99.9375 175.8 L 166.5625 205.1 L 233.1875 87.9 L 299.8125 263.7 L 366.4375 175.8 L 433.0625 146.5 L 499.6875 58.599999999999994" stroke="#7bb7f0" stroke-width="2" stroke-linejoin="round" stroke-linecap="round"></path></g><g class="highcharts-markers highcharts-series-0" transform="translate(57,36) scale(1 1)" clip-path="none"><path fill="#7bb7f0" d="M 499 54.599999999999994 C 504.328 54.599999999999994 504.328 62.599999999999994 499 62.599999999999994 C 493.672 62.599999999999994 493.672 54.599999999999994 499 54.599999999999994 Z"></path><path fill="#7bb7f0" d="M 433 142.5 C 438.328 142.5 438.328 150.5 433 150.5 C 427.672 150.5 427.672 142.5 433 142.5 Z"></path><path fill="#7bb7f0" d="M 366 171.8 C 371.328 171.8 371.328 179.8 366 179.8 C 360.672 179.8 360.672 171.8 366 171.8 Z"></path><path fill="#7bb7f0" d="M 299 259.7 C 304.328 259.7 304.328 267.7 299 267.7 C 293.672 267.7 293.672 259.7 299 259.7 Z"></path><path fill="#7bb7f0" d="M 233 83.9 C 238.328 83.9 238.328 91.9 233 91.9 C 227.672 91.9 227.672 83.9 233 83.9 Z"></path><path fill="#7bb7f0" d="M 166 201.1 C 171.328 201.1 171.328 209.1 166 209.1 C 160.672 209.1 160.672 201.1 166 201.1 Z"></path><path fill="#7bb7f0" d="M 99 171.8 C 104.328 171.8 104.328 179.8 99 179.8 C 93.672 179.8 93.672 171.8 99 171.8 Z"></path><path fill="#7bb7f0" d="M 33 230.4 C 38.328 230.4 38.328 238.4 33 238.4 C 27.672 238.4 27.672 230.4 33 230.4 Z"></path></g></g><text x="300" text-anchor="middle" class="highcharts-title" style="color:#000000;font-size:10px;font-family:'arial', sans-serif;text-transform:none;fill:#000000;width:536px;" y="17"><tspan>BPM</tspan></text><g class="highcharts-data-labels highcharts-series-0" transform="translate(57,36) scale(1 1)" opacity="1"><g style="cursor:pointer;" transform="translate(26,213)"><text x="5" style="font-size:10px;font-weight:bold;font-family:'arial', sans-serif;color:#000000;text-shadow:none;fill:#000000;text-rendering:geometricprecision;" y="15"><tspan>2</tspan></text></g><g style="cursor:pointer;" transform="translate(92,155)"><text x="5" style="font-size:10px;font-weight:bold;font-family:'arial', sans-serif;color:#000000;text-shadow:none;fill:#000000;text-rendering:geometricprecision;" y="15"><tspan>4</tspan></text></g><g style="cursor:pointer;" transform="translate(159,184)"><text x="5" style="font-size:10px;font-weight:bold;font-family:'arial', sans-serif;color:#000000;text-shadow:none;fill:#000000;text-rendering:geometricprecision;" y="15"><tspan>3</tspan></text></g><g style="cursor:pointer;" transform="translate(225,67)"><text x="5" style="font-size:10px;font-weight:bold;font-family:'arial', sans-serif;color:#000000;text-shadow:none;fill:#000000;text-rendering:geometricprecision;" y="15"><tspan>7</tspan></text></g><g style="cursor:pointer;" transform="translate(292,243)"><text x="5" style="font-size:10px;font-weight:bold;font-family:'arial', sans-serif;color:#000000;text-shadow:none;fill:#000000;text-rendering:geometricprecision;" y="15"><tspan>1</tspan></text></g><g style="cursor:pointer;" transform="translate(359,155)"><text x="5" style="font-size:10px;font-weight:bold;font-family:'arial', sans-serif;color:#000000;text-shadow:none;fill:#000000;text-rendering:geometricprecision;" y="15"><tspan>4</tspan></text></g><g style="cursor:pointer;" transform="translate(425,126)"><text x="5" style="font-size:10px;font-weight:bold;font-family:'arial', sans-serif;color:#000000;text-shadow:none;fill:#000000;text-rendering:geometricprecision;" y="15"><tspan>5</tspan></text></g><g style="cursor:pointer;" transform="translate(492,38)"><text x="5" style="font-size:10px;font-weight:bold;font-family:'arial', sans-serif;color:#000000;text-shadow:none;fill:#000000;text-rendering:geometricprecision;" y="15"><tspan>8</tspan></text></g></g><g class="highcharts-legend" transform="translate(271,360)"><g><g><g class="highcharts-legend-item" transform="translate(8,3)"><path fill="none" d="M 0 11 L 16 11" stroke="#7bb7f0" stroke-width="2"></path><path fill="#7bb7f0" d="M 8 7 C 13.328 7 13.328 15 8 15 C 2.6719999999999997 15 2.6719999999999997 7 8 7 Z"></path><text x="21" style="color:#333;font-size:9pt;font-weight:normal;cursor:pointer;font-family:'lucida grande','lucida sans unicode',arial,helvetica,sans-serif;text-transform:none;fill:#333;" text-anchor="start" y="15">Day</text></g></g></g></g><g class="highcharts-axis-labels highcharts-xaxis-labels"><text x="90.3125" style="color:#000000;cursor:default;font-size:10px;font-family:'arial', sans-serif;text-transform:none;font-weight:normal;fill:#000000;" text-anchor="middle" transform="translate(0,0)" y="347" opacity="1">0</text><text x="156.9375" style="color:#000000;cursor:default;font-size:10px;font-family:'arial', sans-serif;text-transform:none;font-weight:normal;fill:#000000;" text-anchor="middle" transform="translate(0,0)" y="347" opacity="1">1</text><text x="223.5625" style="color:#000000;cursor:default;font-size:10px;font-family:'arial', sans-serif;text-transform:none;font-weight:normal;fill:#000000;" text-anchor="middle" transform="translate(0,0)" y="347" opacity="1">2</text><text x="290.1875" style="color:#000000;cursor:default;font-size:10px;font-family:'arial', sans-serif;text-transform:none;font-weight:normal;fill:#000000;" text-anchor="middle" transform="translate(0,0)" y="347" opacity="1">3</text><text x="356.8125" style="color:#000000;cursor:default;font-size:10px;font-family:'arial', sans-serif;text-transform:none;font-weight:normal;fill:#000000;" text-anchor="middle" transform="translate(0,0)" y="347" opacity="1">4</text><text x="423.4375" style="color:#000000;cursor:default;font-size:10px;font-family:'arial', sans-serif;text-transform:none;font-weight:normal;fill:#000000;" text-anchor="middle" transform="translate(0,0)" y="347" opacity="1">5</text><text x="490.0625" style="color:#000000;cursor:default;font-size:10px;font-family:'arial', sans-serif;text-transform:none;font-weight:normal;fill:#000000;" text-anchor="middle" transform="translate(0,0)" y="347" opacity="1">6</text><text x="556.6875" style="color:#000000;cursor:default;font-size:10px;font-family:'arial', sans-serif;text-transform:none;font-weight:normal;fill:#000000;" text-anchor="middle" transform="translate(0,0)" y="347" opacity="1">7</text></g><g class="highcharts-axis-labels highcharts-yaxis-labels"><text x="42" style="color:#000000;cursor:default;font-size:10px;font-family:'arial', sans-serif;text-transform:none;font-weight:normal;fill:#000000;width:188px;text-overflow:clip;" text-anchor="end" transform="translate(0,0)" y="334" opacity="1"><tspan>0</tspan></text><text x="42" style="color:#000000;cursor:default;font-size:10px;font-family:'arial', sans-serif;text-transform:none;font-weight:normal;fill:#000000;width:188px;text-overflow:clip;" text-anchor="end" transform="translate(0,0)" y="275" opacity="1"><tspan>2</tspan></text><text x="42" style="color:#000000;cursor:default;font-size:10px;font-family:'arial', sans-serif;text-transform:none;font-weight:normal;fill:#000000;width:188px;text-overflow:clip;" text-anchor="end" transform="translate(0,0)" y="216" opacity="1"><tspan>4</tspan></text><text x="42" style="color:#000000;cursor:default;font-size:10px;font-family:'arial', sans-serif;text-transform:none;font-weight:normal;fill:#000000;width:188px;text-overflow:clip;" text-anchor="end" transform="translate(0,0)" y="158" opacity="1"><tspan>6</tspan></text><text x="42" style="color:#000000;cursor:default;font-size:10px;font-family:'arial', sans-serif;text-transform:none;font-weight:normal;fill:#000000;width:188px;text-overflow:clip;" text-anchor="end" transform="translate(0,0)" y="99" opacity="1"><tspan>8</tspan></text><text x="42" style="color:#000000;cursor:default;font-size:10px;font-family:'arial', sans-serif;text-transform:none;font-weight:normal;fill:#000000;width:188px;text-overflow:clip;" text-anchor="end" transform="translate(0,0)" y="41" opacity="1"><tspan>10</tspan></text></g><g class="highcharts-tooltip" display="none" style="cursor:default;padding:0;pointer-events:none;white-space:nowrap;" transform="translate(0,0)"><path fill="none" d="M 3.5 0.5 L 13.5 0.5 C 16.5 0.5 16.5 0.5 16.5 3.5 L 16.5 13.5 C 16.5 16.5 16.5 16.5 13.5 16.5 L 3.5 16.5 C 0.5 16.5 0.5 16.5 0.5 13.5 L 0.5 3.5 C 0.5 0.5 0.5 0.5 3.5 0.5"  stroke="black" stroke-opacity="0.049999999999999996" stroke-width="5" transform="translate(1, 1)"></path><path fill="none" d="M 3.5 0.5 L 13.5 0.5 C 16.5 0.5 16.5 0.5 16.5 3.5 L 16.5 13.5 C 16.5 16.5 16.5 16.5 13.5 16.5 L 3.5 16.5 C 0.5 16.5 0.5 16.5 0.5 13.5 L 0.5 3.5 C 0.5 0.5 0.5 0.5 3.5 0.5"  stroke="black" stroke-opacity="0.09999999999999999" stroke-width="3" transform="translate(1, 1)"></path><path fill="none" d="M 3.5 0.5 L 13.5 0.5 C 16.5 0.5 16.5 0.5 16.5 3.5 L 16.5 13.5 C 16.5 16.5 16.5 16.5 13.5 16.5 L 3.5 16.5 C 0.5 16.5 0.5 16.5 0.5 13.5 L 0.5 3.5 C 0.5 0.5 0.5 0.5 3.5 0.5"  stroke="black" stroke-opacity="0.15" stroke-width="1" transform="translate(1, 1)"></path><path fill="rgb(255, 255, 255)" fill-opacity=" 0.85" d="M 3.5 0.5 L 13.5 0.5 C 16.5 0.5 16.5 0.5 16.5 3.5 L 16.5 13.5 C 16.5 16.5 16.5 16.5 13.5 16.5 L 3.5 16.5 C 0.5 16.5 0.5 16.5 0.5 13.5 L 0.5 3.5 C 0.5 0.5 0.5 0.5 3.5 0.5"></path><text x="8" style="font-size:12px;color:#000000;fill:#000000;" y="20"></text></g><text x="590" text-anchor="end" style="cursor:pointer;color:#909090;font-size:9px;fill:#909090;" y="395">meta-chart.com</text></svg>