<?xml version="1.0" standalone="no"?><!DOCTYPE svg PUBLIC "-//W3C//DTD SVG 1.1//EN" "http://www.w3.org/Graphics/SVG/1.1/DTD/svg11.dtd"><svg xmlns:xlink="http://www.w3.org/1999/xlink" version="1.1" style="font-family:'lucida grande', 'lucida sans unicode', arial, helvetica, sans-serif;font-size:12px;" xmlns="http://www.w3.org/2000/svg" width="600" height="400"><desc>Created with Highcharts 4.2.7</desc><defs><clipPath id="highcharts-17"><rect x="1" y="1" width="531" height="291"></rect></clipPath></defs><rect x="57" y="36" width="533" height="293" fill="#ffffff"></rect><path fill="rgb(255, 255, 255)" fill-opacity=" .5" d="M 57 329.5 L 590 329.5 590 256.5 57 256.5"></path><path fill="rgb(255, 255, 255)" fill-opacity=" .5" d="M 57 183.5 L 590 183.5 590 109.5 57 109.5"></path><g class="highcharts-grid"></g><g class="highcharts-grid"><path fill="none" d="M 57 329.5 L 590 329.5" stroke="#C0C0C0" stroke-width="1" opacity="1"></path><path fill="none" d="M 57 256.5 L 590 256.5" stroke="#C0C0C0" stroke-width="1" opacity="1"></path><path fill="none" d="M 57 183.5 L 590 183.5" stroke="#C0C0C0" stroke-width="1" opacity="1"></path><path fill="none" d="M 57 109.5 L 590 109.5" stroke="#C0C0C0" stroke-width="1" opacity="1"></path><path fill="none" d="M 57 35.5 L 590 35.5" stroke="#C0C0C0" stroke-width="1" opacity="1"></path></g><rect x="57" y="36" width="533" height="293" stroke="#026FC1" stroke-width="2" fill="none"></rect><g class="highcharts-axis"><path fill="none" d="M 234.5 329 L 234.5 339" stroke="#C0D0E0" stroke-width="1" opacity="1"></path><path fill="none" d="M 411.5 329 L 411.5 339" stroke="#C0D0E0" stroke-width="1" opacity="1"></path><path fill="none" d="M 590.5 329 L 590.5 339" stroke="#C0D0E0" stroke-width="1" opacity="1"></path><path fill="none" d="M 56.5 329 L 56.5 339" stroke="#C0D0E0" stroke-width="1" opacity="1"></path><path fill="none" d="M 57 329.5 L 590 329.5" stroke="#C0D0E0" stroke-width="1"></path></g><g class="highcharts-axis"><path fill="none" d="M 57 329.5 L 47 329.5" stroke="#C0D0E0" stroke-width="1" opacity="1"></path><path fill="none" d="M 57 256.5 L 47 256.5" stroke="#C0D0E0" stroke-width="1" opacity="1"></path><path fill="none" d="M 57 183.5 L 47 183.5" stroke="#C0D0E0" stroke-width="1" opacity="1"></path><path fill="none" d="M 57 109.5 L 47 109.5" stroke="#C0D0E0" stroke-width="1" opacity="1"></path><path fill="none" d="M 57 35.5 L 47 35.5" stroke="#C0D0E0" stroke-width="1" opacity="1"></path><text x="20.890625" text-anchor="middle" transform="translate(0,0) rotate(270 20.890625 182.5)" class=" highcharts-yaxis-title" style="color:#000000;font-size:10px;font-family:'arial', sans-serif;text-transform:none;font-weight:normal;fill:#000000;" y="182.5"><tspan>Number of Minutes</tspan></text></g><g class="highcharts-series-group"><g class="highcharts-series highcharts-series-0" transform="translate(57,36) scale(1 1)" clip-path="url(#highcharts-17)"><rect x="45.5" y="51.5" width="86" height="242" stroke="#FFFFFF" stroke-width="1" fill="#53ccee" rx="0" ry="0"></rect><rect x="223.5" y="73.5" width="86" height="220" stroke="#FFFFFF" stroke-width="1" fill="#2b8fdd" rx="0" ry="0"></rect><rect x="401.5" y="183.5" width="86" height="110" stroke="#FFFFFF" stroke-width="1" fill="#0024df" rx="0" ry="0"></rect></g><g class="highcharts-markers highcharts-series-0" transform="translate(57,36) scale(1 1)" clip-path="none"></g><g class="highcharts-series highcharts-series-1" transform="translate(57,36) scale(1 1)" clip-path="url(#highcharts-17)"></g><g class="highcharts-markers highcharts-series-1" transform="translate(57,36) scale(1 1)" clip-path="none"></g></g><text x="300" text-anchor="middle" class="highcharts-title" style="color:#000000;font-size:10px;font-family:'arial', sans-serif;text-transform:none;fill:#000000;width:536px;" y="17"><tspan>Minutes of Exercise</tspan></text><g class="highcharts-data-labels highcharts-series-0" transform="translate(57,36) scale(1 1)" opacity="1"><g style="cursor:pointer;" transform="translate(78,31)"><text x="5" style="font-size:10px;font-weight:bold;font-family:'arial', sans-serif;color:#000000;text-shadow:none;fill:#000000;text-rendering:geometricprecision;" y="15"><tspan>33</tspan></text></g><g style="cursor:pointer;" transform="translate(256,53)"><text x="5" style="font-size:10px;font-weight:bold;font-family:'arial', sans-serif;color:#000000;text-shadow:none;fill:#000000;text-rendering:geometricprecision;" y="15"><tspan>30</tspan></text></g><g style="cursor:pointer;" transform="translate(434,163)"><text x="5" style="font-size:10px;font-weight:bold;font-family:'arial', sans-serif;color:#000000;text-shadow:none;fill:#000000;text-rendering:geometricprecision;" y="15"><tspan>15</tspan></text></g></g><g class="highcharts-data-labels highcharts-series-1" transform="translate(57,36) scale(1 1)" opacity="1"></g><g class="highcharts-legend" transform="translate(225,360)"><g><g><g class="highcharts-legend-item" transform="translate(8,3)"><text x="21" style="color:#333;font-size:9pt;font-weight:normal;cursor:pointer;font-family:'lucida grande','lucida sans unicode',arial,helvetica,sans-serif;text-transform:none;fill:#333;" text-anchor="start" y="15"><tspan>Minutes of Exercise</tspan></text><rect x="0" y="4" width="16" height="12" fill="#CCC"></rect></g></g></g></g><g class="highcharts-axis-labels highcharts-xaxis-labels"><text x="145.83333333333331" style="color:#000000;cursor:default;font-size:10px;font-family:'arial', sans-serif;text-transform:none;font-weight:normal;fill:#000000;" text-anchor="middle" transform="translate(0,0)" y="347" opacity="1"><tspan>Morning 6am-11am</tspan></text><text x="323.5" style="color:#000000;cursor:default;font-size:10px;font-family:'arial', sans-serif;text-transform:none;font-weight:normal;fill:#000000;" text-anchor="middle" transform="translate(0,0)" y="347" opacity="1"><tspan>Afternoon 11am-4pm</tspan></text><text x="501.1666666666667" style="color:#000000;cursor:default;font-size:10px;font-family:'arial', sans-serif;text-transform:none;font-weight:normal;fill:#000000;" text-anchor="middle" transform="translate(0,0)" y="347" opacity="1"><tspan>Evening 4pm-9pm</tspan></text></g><g class="highcharts-axis-labels highcharts-yaxis-labels"><text x="42" style="color:#000000;cursor:default;font-size:10px;font-family:'arial', sans-serif;text-transform:none;font-weight:normal;fill:#000000;width:188px;text-overflow:clip;" text-anchor="end" transform="translate(0,0)" y="334" opacity="1"><tspan>0</tspan></text><text x="42" style="color:#000000;cursor:default;font-size:10px;font-family:'arial', sans-serif;text-transform:none;font-weight:normal;fill:#000000;width:188px;text-overflow:clip;" text-anchor="end" transform="translate(0,0)" y="260" opacity="1"><tspan>10</tspan></text><text x="42" style="color:#000000;cursor:default;font-size:10px;font-family:'arial', sans-serif;text-transform:none;font-weight:normal;fill:#000000;width:188px;text-overflow:clip;" text-anchor="end" transform="translate(0,0)" y="187" opacity="1"><tspan>20</tspan></text><text x="42" style="color:#000000;cursor:default;font-size:10px;font-family:'arial', sans-serif;text-transform:none;font-weight:normal;fill:#000000;width:188px;text-overflow:clip;" text-anchor="end" transform="translate(0,0)" y="114" opacity="1"><tspan>30</tspan></text><text x="42" style="color:#000000;cursor:default;font-size:10px;font-family:'arial', sans-serif;text-transform:none;font-weight:normal;fill:#000000;width:188px;text-overflow:clip;" text-anchor="end" transform="translate(0,0)" y="41" opacity="1"><tspan>40</tspan></text></g><g class="highcharts-tooltip" display="none" style="cursor:default;padding:0;pointer-events:none;white-space:nowrap;" transform="translate(0,0)"><path fill="none" d="M 3.5 0.5 L 13.5 0.5 C 16.5 0.5 16.5 0.5 16.5 3.5 L 16.5 13.5 C 16.5 16.5 16.5 16.5 13.5 16.5 L 3.5 16.5 C 0.5 16.5 0.5 16.5 0.5 13.5 L 0.5 3.5 C 0.5 0.5 0.5 0.5 3.5 0.5"  stroke="black" stroke-opacity="0.049999999999999996" stroke-width="5" transform="translate(1, 1)"></path><path fill="none" d="M 3.5 0.5 L 13.5 0.5 C 16.5 0.5 16.5 0.5 16.5 3.5 L 16.5 13.5 C 16.5 16.5 16.5 16.5 13.5 16.5 L 3.5 16.5 C 0.5 16.5 0.5 16.5 0.5 13.5 L 0.5 3.5 C 0.5 0.5 0.5 0.5 3.5 0.5"  stroke="black" stroke-opacity="0.09999999999999999" stroke-width="3" transform="translate(1, 1)"></path><path fill="none" d="M 3.5 0.5 L 13.5 0.5 C 16.5 0.5 16.5 0.5 16.5 3.5 L 16.5 13.5 C 16.5 16.5 16.5 16.5 13.5 16.5 L 3.5 16.5 C 0.5 16.5 0.5 16.5 0.5 13.5 L 0.5 3.5 C 0.5 0.5 0.5 0.5 3.5 0.5"  stroke="black" stroke-opacity="0.15" stroke-width="1" transform="translate(1, 1)"></path><path fill="rgb(255, 255, 255)" fill-opacity=" 0.85" d="M 3.5 0.5 L 13.5 0.5 C 16.5 0.5 16.5 0.5 16.5 3.5 L 16.5 13.5 C 16.5 16.5 16.5 16.5 13.5 16.5 L 3.5 16.5 C 0.5 16.5 0.5 16.5 0.5 13.5 L 0.5 3.5 C 0.5 0.5 0.5 0.5 3.5 0.5"></path><text x="8" style="font-size:12px;color:#000000;fill:#000000;" y="20"></text></g><text x="590" text-anchor="end" style="cursor:pointer;color:#909090;font-size:9px;fill:#909090;" y="395">meta-chart.com</text></svg>