<?xml version="1.0" standalone="no"?><!DOCTYPE svg PUBLIC "-//W3C//DTD SVG 1.1//EN" "http://www.w3.org/Graphics/SVG/1.1/DTD/svg11.dtd"><svg xmlns:xlink="http://www.w3.org/1999/xlink" version="1.1" style="font-family:'lucida grande', 'lucida sans unicode', arial, helvetica, sans-serif;font-size:12px;" xmlns="http://www.w3.org/2000/svg" width="600" height="400"><desc>Created with Highcharts 4.2.7</desc><defs><clipPath id="highcharts-5"><rect x="1" y="1" width="520" height="291"></rect></clipPath></defs><rect x="68" y="36" width="522" height="293" fill="#ffffff"></rect><path fill="rgb(255, 255, 255)" fill-opacity=" .5" d="M 68 329.5 L 590 329.5 590 256.5 68 256.5"></path><path fill="rgb(255, 255, 255)" fill-opacity=" .5" d="M 68 183.5 L 590 183.5 590 109.5 68 109.5"></path><g class="highcharts-grid"></g><g class="highcharts-grid"><path fill="none" d="M 68 329.5 L 590 329.5" stroke="#C0C0C0" stroke-width="1" opacity="1"></path><path fill="none" d="M 68 256.5 L 590 256.5" stroke="#C0C0C0" stroke-width="1" opacity="1"></path><path fill="none" d="M 68 183.5 L 590 183.5" stroke="#C0C0C0" stroke-width="1" opacity="1"></path><path fill="none" d="M 68 109.5 L 590 109.5" stroke="#C0C0C0" stroke-width="1" opacity="1"></path><path fill="none" d="M 68 35.5 L 590 35.5" stroke="#C0C0C0" stroke-width="1" opacity="1"></path></g><rect x="68" y="36" width="522" height="293" stroke="#026FC1" stroke-width="2" fill="none"></rect><g class="highcharts-axis"><path fill="none" d="M 241.5 329 L 241.5 339" stroke="#C0D0E0" stroke-width="1" opacity="1"></path><path fill="none" d="M 415.5 329 L 415.5 339" stroke="#C0D0E0" stroke-width="1" opacity="1"></path><path fill="none" d="M 590.5 329 L 590.5 339" stroke="#C0D0E0" stroke-width="1" opacity="1"></path><path fill="none" d="M 67.5 329 L 67.5 339" stroke="#C0D0E0" stroke-width="1" opacity="1"></path><path fill="none" d="M 68 329.5 L 590 329.5" stroke="#C0D0E0" stroke-width="1"></path></g><g class="highcharts-axis"><path fill="none" d="M 68 329.5 L 58 329.5" stroke="#C0D0E0" stroke-width="1" opacity="1"></path><path fill="none" d="M 68 256.5 L 58 256.5" stroke="#C0D0E0" stroke-width="1" opacity="1"></path><path fill="none" d="M 68 183.5 L 58 183.5" stroke="#C0D0E0" stroke-width="1" opacity="1"></path><path fill="none" d="M 68 109.5 L 58 109.5" stroke="#C0D0E0" stroke-width="1" opacity="1"></path><path fill="none" d="M 68 35.5 L 58 35.5" stroke="#C0D0E0" stroke-width="1" opacity="1"></path><text x="20.765625" text-anchor="middle" transform="translate(0,0) rotate(270 20.765625 182.5)" class=" highcharts-yaxis-title" style="color:#000000;font-size:10px;font-family:'arial', sans-serif;text-transform:none;font-weight:normal;fill:#000000;" y="182.5"><tspan>Number of Steps</tspan></text></g><g class="highcharts-series-group"><g class="highcharts-series highcharts-series-0" transform="translate(68,36) scale(1 1)" clip-path="url(#highcharts-5)"><rect x="44.5" y="132.5" width="84" height="161" stroke="#FFFFFF" stroke-width="1" fill="#53ccee" rx="0" ry="0"></rect><rect x="218.5" y="73.5" width="84" height="220" stroke="#FFFFFF" stroke-width="1" fill="#2b8fdd" rx="0" ry="0"></rect><rect x="392.5" y="258.5" width="84" height="35" stroke="#FFFFFF" stroke-width="1" fill="#0024df" rx="0" ry="0"></rect></g><g class="highcharts-markers highcharts-series-0" transform="translate(68,36) scale(1 1)" clip-path="none"></g><g class="highcharts-series highcharts-series-1" transform="translate(68,36) scale(1 1)" clip-path="url(#highcharts-5)"></g><g class="highcharts-markers highcharts-series-1" transform="translate(68,36) scale(1 1)" clip-path="none"></g></g><text x="300" text-anchor="middle" class="highcharts-title" style="color:#000000;font-size:10px;font-family:'arial', sans-serif;text-transform:none;fill:#000000;width:536px;" y="17"><tspan>Steps per Day</tspan></text><g class="highcharts-data-labels highcharts-series-0" transform="translate(68,36) scale(1 1)" opacity="1"><g style="cursor:pointer;" transform="translate(70,112)"><text x="5" style="font-size:10px;font-weight:bold;font-family:'arial', sans-serif;color:#000000;text-shadow:none;fill:#000000;text-rendering:geometricprecision;" y="15"><tspan>2200</tspan></text></g><g style="cursor:pointer;" transform="translate(244,53)"><text x="5" style="font-size:10px;font-weight:bold;font-family:'arial', sans-serif;color:#000000;text-shadow:none;fill:#000000;text-rendering:geometricprecision;" y="15"><tspan>3000</tspan></text></g><g style="cursor:pointer;" transform="translate(421,238)"><text x="5" style="font-size:10px;font-weight:bold;font-family:'arial', sans-serif;color:#000000;text-shadow:none;fill:#000000;text-rendering:geometricprecision;" y="15"><tspan>473</tspan></text></g></g><g class="highcharts-data-labels highcharts-series-1" transform="translate(68,36) scale(1 1)" opacity="1"></g><g class="highcharts-legend" transform="translate(246,360)"><g><g><g class="highcharts-legend-item" transform="translate(8,3)"><text x="21" style="color:#333;font-size:9pt;font-weight:normal;cursor:pointer;font-family:'lucida grande','lucida sans unicode',arial,helvetica,sans-serif;text-transform:none;fill:#333;" text-anchor="start" y="15"><tspan>Time of Day</tspan></text><rect x="0" y="4" width="16" height="12" fill="#CCC"></rect></g></g></g></g><g class="highcharts-axis-labels highcharts-xaxis-labels"><text x="155" style="color:#000000;cursor:default;font-size:10px;font-family:'arial', sans-serif;text-transform:none;font-weight:normal;fill:#000000;" text-anchor="middle" transform="translate(0,0)" y="347" opacity="1"><tspan>Morning 6am-11am</tspan></text><text x="329" style="color:#000000;cursor:default;font-size:10px;font-family:'arial', sans-serif;text-transform:none;font-weight:normal;fill:#000000;" text-anchor="middle" transform="translate(0,0)" y="347" opacity="1"><tspan>Afternoon 11am-4pm</tspan></text><text x="503" style="color:#000000;cursor:default;font-size:10px;font-family:'arial', sans-serif;text-transform:none;font-weight:normal;fill:#000000;" text-anchor="middle" transform="translate(0,0)" y="347" opacity="1"><tspan>Evening 4pm-9pm</tspan></text></g><g class="highcharts-axis-labels highcharts-yaxis-labels"><text x="53" style="color:#000000;cursor:default;font-size:10px;font-family:'arial', sans-serif;text-transform:none;font-weight:normal;fill:#000000;width:188px;text-overflow:clip;" text-anchor="end" transform="translate(0,0)" y="334" opacity="1"><tspan>0</tspan></text><text x="53" style="color:#000000;cursor:default;font-size:10px;font-family:'arial', sans-serif;text-transform:none;font-weight:normal;fill:#000000;width:188px;text-overflow:clip;" text-anchor="end" transform="translate(0,0)" y="260" opacity="1"><tspan>1000</tspan></text><text x="53" style="color:#000000;cursor:default;font-size:10px;font-family:'arial', sans-serif;text-transform:none;font-weight:normal;fill:#000000;width:188px;text-overflow:clip;" text-anchor="end" transform="translate(0,0)" y="187" opacity="1"><tspan>2000</tspan></text><text x="53" style="color:#000000;cursor:default;font-size:10px;font-family:'arial', sans-serif;text-transform:none;font-weight:normal;fill:#000000;width:188px;text-overflow:clip;" text-anchor="end" transform="translate(0,0)" y="114" opacity="1"><tspan>3000</tspan></text><text x="53" style="color:#000000;cursor:default;font-size:10px;font-family:'arial', sans-serif;text-transform:none;font-weight:normal;fill:#000000;width:188px;text-overflow:clip;" text-anchor="end" transform="translate(0,0)" y="41" opacity="1"><tspan>4000</tspan></text></g><g class="highcharts-tooltip" display="none" style="cursor:default;padding:0;pointer-events:none;white-space:nowrap;" transform="translate(0,0)"><path fill="none" d="M 3.5 0.5 L 13.5 0.5 C 16.5 0.5 16.5 0.5 16.5 3.5 L 16.5 13.5 C 16.5 16.5 16.5 16.5 13.5 16.5 L 3.5 16.5 C 0.5 16.5 0.5 16.5 0.5 13.5 L 0.5 3.5 C 0.5 0.5 0.5 0.5 3.5 0.5"  stroke="black" stroke-opacity="0.049999999999999996" stroke-width="5" transform="translate(1, 1)"></path><path fill="none" d="M 3.5 0.5 L 13.5 0.5 C 16.5 0.5 16.5 0.5 16.5 3.5 L 16.5 13.5 C 16.5 16.5 16.5 16.5 13.5 16.5 L 3.5 16.5 C 0.5 16.5 0.5 16.5 0.5 13.5 L 0.5 3.5 C 0.5 0.5 0.5 0.5 3.5 0.5"  stroke="black" stroke-opacity="0.09999999999999999" stroke-width="3" transform="translate(1, 1)"></path><path fill="none" d="M 3.5 0.5 L 13.5 0.5 C 16.5 0.5 16.5 0.5 16.5 3.5 L 16.5 13.5 C 16.5 16.5 16.5 16.5 13.5 16.5 L 3.5 16.5 C 0.5 16.5 0.5 16.5 0.5 13.5 L 0.5 3.5 C 0.5 0.5 0.5 0.5 3.5 0.5"  stroke="black" stroke-opacity="0.15" stroke-width="1" transform="translate(1, 1)"></path><path fill="rgb(255, 255, 255)" fill-opacity=" 0.85" d="M 3.5 0.5 L 13.5 0.5 C 16.5 0.5 16.5 0.5 16.5 3.5 L 16.5 13.5 C 16.5 16.5 16.5 16.5 13.5 16.5 L 3.5 16.5 C 0.5 16.5 0.5 16.5 0.5 13.5 L 0.5 3.5 C 0.5 0.5 0.5 0.5 3.5 0.5"></path><text x="8" style="font-size:12px;color:#000000;fill:#000000;" y="20"></text></g><text x="590" text-anchor="end" style="cursor:pointer;color:#909090;font-size:9px;fill:#909090;" y="395">meta-chart.com</text></svg>